<?xml version="1.0" standalone="no"?>
<!DOCTYPE svg PUBLIC "-//W3C//DTD SVG 20010904//EN"
 "http://www.w3.org/TR/2001/REC-SVG-20010904/DTD/svg10.dtd">
<svg version="1.0" xmlns="http://www.w3.org/2000/svg"
 width="328.000000pt" height="307.000000pt" viewBox="0 0 328.000000 307.000000"
 preserveAspectRatio="xMidYMid meet">

<g transform="translate(0.000000,307.000000) scale(0.100000,-0.100000)"
fill="#000000" stroke="none">
<path d="M1612 2992 c-85 -91 -207 -243 -226 -283 -9 -19 -44 -65 -77 -104
-86 -100 -102 -118 -159 -191 -29 -35 -55 -64 -59 -64 -17 0 -85 -78 -108
-124 -14 -28 -50 -76 -79 -106 -29 -30 -78 -89 -109 -130 -31 -41 -80 -98
-109 -126 -30 -28 -64 -71 -76 -95 -13 -24 -71 -98 -131 -166 -59 -67 -122
-142 -139 -167 -17 -24 -43 -50 -57 -57 -26 -14 -70 -72 -90 -120 -6 -15 -38
-55 -70 -90 -32 -35 -73 -81 -91 -102 l-32 -37 0 -515 0 -515 1640 0 1640 0 0
615 0 615 -51 40 c-81 64 -261 266 -273 307 -4 12 -37 47 -73 79 -36 32 -99
100 -140 151 -40 50 -77 95 -83 98 -6 4 -17 22 -25 41 -7 18 -37 55 -66 81
-115 105 -250 254 -267 296 -17 39 -51 77 -117 129 -27 22 -78 72 -113 112
-35 39 -80 89 -102 111 -21 22 -41 51 -45 65 -17 54 -240 280 -278 280 -5 0
-21 -13 -35 -28z m-792 -1236 c0 -3 -4 -8 -10 -11 -5 -3 -10 -1 -10 4 0 6 5
11 10 11 6 0 10 -2 10 -4z m-483 -568 c-3 -8 -6 -5 -6 6 -1 11 2 17 5 13 3 -3
4 -12 1 -19z m1643 -38 c0 -5 -10 -10 -22 -10 -19 0 -20 2 -8 10 19 13 30 13
30 0z m135 0 c3 -6 -1 -7 -9 -4 -18 7 -21 14 -7 14 6 0 13 -4 16 -10z m40 -40
c19 -36 19 -40 -1 -40 -11 0 -14 6 -9 20 4 13 1 22 -9 26 -9 3 -13 10 -10 15
8 14 12 11 29 -21z m-903 5 c17 -22 7 -34 -12 -15 -11 11 -20 22 -20 25 0 8
24 1 32 -10z m-92 -5 c0 -5 -4 -10 -8 -10 -5 0 -13 -12 -19 -27 l-12 -28 6 30
c3 17 8 33 10 38 6 10 23 9 23 -3z m350 6 c0 -2 -7 -9 -15 -16 -13 -11 -14
-10 -9 4 5 14 24 23 24 12z m377 -30 c-12 -18 -24 -32 -25 -30 -6 4 31 64 40
64 4 0 -3 -15 -15 -34z m-127 -15 c0 -6 -12 -10 -27 -10 -18 1 -22 3 -10 6 13
3 16 10 11 26 -6 19 -5 20 10 5 9 -9 16 -21 16 -27z m332 9 c12 -11 19 -22 16
-26 -3 -3 -17 6 -31 20 -30 30 -16 35 15 6z m-635 -22 c-3 -8 -6 -5 -6 6 -1
11 2 17 5 13 3 -3 4 -12 1 -19z m-337 -31 c0 -7 -7 -22 -15 -33 -13 -17 -13
-16 -3 14 13 34 18 40 18 19z m820 -17 c0 -5 -2 -10 -4 -10 -3 0 -8 5 -11 10
-3 6 -1 10 4 10 6 0 11 -4 11 -10z m-82 -80 c1 -28 -1 -31 -8 -15 -5 11 -8 38
-8 60 0 34 1 36 8 15 4 -14 8 -41 8 -60z m-351 48 c-3 -8 -6 -5 -6 6 -1 11 2
17 5 13 3 -3 4 -12 1 -19z m-257 -21 c0 -5 -4 -5 -10 -2 -5 3 -10 14 -10 23 0
15 2 15 10 2 5 -8 10 -19 10 -23z m177 1 c-3 -7 -5 -2 -5 12 0 14 2 19 5 13 2
-7 2 -19 0 -25z m513 22 c0 -5 -4 -10 -10 -10 -5 0 -10 5 -10 10 0 6 5 10 10
10 6 0 10 -4 10 -10z m-310 -10 c0 -5 -5 -10 -11 -10 -5 0 -7 5 -4 10 3 6 8
10 11 10 2 0 4 -4 4 -10z m50 6 c0 -2 -7 -6 -15 -10 -8 -3 -15 -1 -15 4 0 6 7
10 15 10 8 0 15 -2 15 -4z m90 -28 c0 -26 -9 -19 -15 11 -2 12 0 19 6 16 5 -4
9 -16 9 -27z m-263 -20 c-3 -7 -5 -2 -5 12 0 14 2 19 5 13 2 -7 2 -19 0 -25z
m133 -1 c11 -5 9 -6 -4 -4 -11 1 -21 9 -23 17 -3 10 -2 11 4 4 4 -6 15 -14 23
-17z m311 -22 c19 -52 6 -51 -16 2 -17 41 -18 43 -7 43 4 0 14 -20 23 -45z
m-869 13 c-7 -7 -12 -8 -12 -2 0 14 12 26 19 19 2 -3 -1 -11 -7 -17z m1027
-12 c-27 -28 -30 -28 -22 2 3 13 13 22 25 22 19 0 19 -1 -3 -24z m64 7 c11
-19 -48 -103 -72 -103 -6 0 3 14 20 31 23 24 29 37 25 55 -5 17 -2 24 8 24 8
0 17 -3 19 -7z m-408 -13 c3 -5 1 -10 -4 -10 -6 0 -11 5 -11 10 0 6 2 10 4 10
3 0 8 -4 11 -10z m-568 -16 c-3 -3 -12 -4 -19 -1 -8 3 -5 6 6 6 11 1 17 -2 13
-5z m263 -57 c0 -21 -18 7 -25 38 l-7 30 16 -29 c9 -15 16 -33 16 -39z m495
-18 l30 -2 -29 -4 c-22 -4 -35 2 -57 27 -16 17 -29 36 -29 42 0 6 12 -5 28
-25 19 -26 35 -37 57 -38z m-1885 57 c0 -2 -8 -10 -17 -17 -16 -13 -17 -12 -4
4 13 16 21 21 21 13z m1289 -49 c0 -21 -1 -21 -9 -2 -12 28 -12 37 0 30 6 -3
10 -16 9 -28z m381 3 c-36 -31 -50 -37 -50 -20 0 6 6 10 13 10 8 0 22 9 32 20
10 11 23 20 29 20 6 -1 -5 -14 -24 -30z m-580 10 c0 -5 -4 -10 -9 -10 -6 0
-13 5 -16 10 -3 6 1 10 9 10 9 0 16 -4 16 -10z m354 -29 c11 -4 15 -10 10 -13
-5 -4 -18 0 -29 8 -20 15 -12 17 19 5z m-481 -29 c-3 -12 -9 -19 -14 -16 -5 3
-3 14 3 24 15 24 19 21 11 -8z m276 1 c2 -2 -3 -3 -11 -3 -9 0 -19 7 -22 16
-6 15 -4 15 11 3 10 -7 20 -15 22 -16z m371 23 c0 -3 -4 -8 -10 -11 -5 -3 -10
-1 -10 4 0 6 5 11 10 11 6 0 10 -2 10 -4z m-306 -15 c3 -5 -6 -8 -20 -8 -19 0
-22 2 -13 8 18 11 26 11 33 0z m266 -1 c0 -5 -4 -10 -10 -10 -5 0 -10 5 -10
10 0 6 5 10 10 10 6 0 10 -4 10 -10z m-548 -22 c-6 -6 -15 -8 -19 -4 -4 4 -1
11 7 16 19 12 27 3 12 -12z m2048 -115 c-1 -50 -2 -56 -14 -41 -7 10 -16 15
-19 11 -12 -11 -7 14 7 43 8 15 13 31 10 36 -3 4 0 8 5 8 7 0 11 -23 11 -57z
m-500 -3 c0 -5 -5 -10 -11 -10 -5 0 -7 5 -4 10 3 6 8 10 11 10 2 0 4 -4 4 -10z
m-505 -20 c-3 -5 -12 -10 -18 -10 -7 0 -6 4 3 10 19 12 23 12 15 0z m505 -52
c0 -18 -2 -20 -9 -8 -6 8 -7 18 -5 22 9 14 14 9 14 -14z m497 -35 c-3 -10 -5
-2 -5 17 0 19 2 27 5 18 2 -10 2 -26 0 -35z m-800 -15 c-3 -7 -5 -2 -5 12 0
14 2 19 5 13 2 -7 2 -19 0 -25z m-2197 -25 c0 -13 -3 -13 -15 -3 -8 7 -12 16
-9 21 8 13 24 1 24 -18z m1564 1 c3 -8 2 -12 -4 -9 -6 3 -10 10 -10 16 0 14 7
11 14 -7z m863 -16 c-3 -8 -6 -5 -6 6 -1 11 2 17 5 13 3 -3 4 -12 1 -19z m273
-28 c0 -5 -4 -10 -10 -10 -5 0 -10 5 -10 10 0 6 5 10 10 10 6 0 10 -4 10 -10z
m-2043 -32 c-3 -8 -6 -5 -6 6 -1 11 2 17 5 13 3 -3 4 -12 1 -19z m1388 -8 c3
-5 1 -10 -4 -10 -6 0 -11 5 -11 10 0 6 2 10 4 10 3 0 8 -4 11 -10z m452 -82
c-2 -13 -4 -5 -4 17 -1 22 1 32 4 23 2 -10 2 -28 0 -40z m-2522 -8 c3 -5 1
-10 -4 -10 -6 0 -11 5 -11 10 0 6 2 10 4 10 3 0 8 -4 11 -10z m1715 -36 c0 -8
-5 -12 -10 -9 -6 4 -8 11 -5 16 9 14 15 11 15 -7z m815 6 c3 -5 1 -10 -4 -10
-6 0 -11 5 -11 10 0 6 2 10 4 10 3 0 8 -4 11 -10z m-1125 -16 c0 -8 -5 -12
-10 -9 -6 4 -8 11 -5 16 9 14 15 11 15 -7z m-303 -41 c-3 -10 -5 -4 -5 12 0
17 2 24 5 18 2 -7 2 -21 0 -30z m-420 5 c-3 -8 -6 -5 -6 6 -1 11 2 17 5 13 3
-3 4 -12 1 -19z m528 -8 c3 -5 -1 -10 -10 -10 -9 0 -13 5 -10 10 3 6 8 10 10
10 2 0 7 -4 10 -10z m1748 -67 c-7 -2 -19 -2 -25 0 -7 3 -2 5 12 5 14 0 19 -2
13 -5z m32 -13 c3 -5 -1 -10 -10 -10 -9 0 -13 5 -10 10 3 6 8 10 10 10 2 0 7
-4 10 -10z m45 6 c0 -3 -4 -8 -10 -11 -5 -3 -10 -1 -10 4 0 6 5 11 10 11 6 0
10 -2 10 -4z m-2947 -133 c-7 -2 -19 -2 -25 0 -7 3 -2 5 12 5 14 0 19 -2 13
-5z"/>
</g>
</svg>
